<svg width="42" height="42" viewBox="0 0 42 42" fill="none" xmlns="http://www.w3.org/2000/svg">
<g clip-path="url(#clip0_270_1726)">
<path d="M42 21C42 32.5981 32.5981 42 21 42C9.40205 42 0 32.5981 0 21C0 9.40205 9.40205 0 21 0C32.5981 0 42 9.40205 42 21Z" fill="#175DDC"/>
<path fill-rule="evenodd" clip-rule="evenodd" d="M31.0259 10.545C30.8166 10.3436 30.5749 10.2261 30.3011 10.2261H11.7135C11.4397 10.2261 11.1819 10.3436 10.9887 10.545C10.7793 10.7465 10.6826 11.0152 10.6826 11.3006V24.2285C10.6826 25.2023 10.8598 26.1426 11.2142 27.0828C11.5685 28.023 12.0195 28.8625 12.5511 29.6012C13.0826 30.34 13.7269 31.0451 14.4517 31.7503C15.1926 32.4555 15.8691 33.0263 16.4812 33.4964C17.1094 33.9497 17.7537 34.3863 18.4302 34.806C19.1067 35.2089 19.5899 35.4944 19.8798 35.6287C20.1697 35.7798 20.3952 35.8805 20.5724 35.9645C20.7013 36.0316 20.8462 36.0652 20.9912 36.0652C21.1362 36.0652 21.2811 36.0316 21.41 35.9645C21.5872 35.8805 21.8127 35.7798 22.1026 35.6287C22.3925 35.4776 22.8757 35.2089 23.5522 34.806C24.2287 34.4031 24.873 33.9665 25.5012 33.4964C26.1294 33.0431 26.8059 32.4555 27.5468 31.7503C28.2877 31.0451 28.9159 30.34 29.4474 29.6012C29.979 28.8625 30.43 28.023 30.7843 27.0828C31.1548 26.1426 31.3159 25.1856 31.3159 24.2285V11.3006C31.332 11.0152 31.2192 10.7633 31.0259 10.545ZM28.626 24.3461C28.626 29.0304 21.0073 33.0431 21.0073 33.0431V12.9964H28.626C28.626 12.9964 28.626 19.6618 28.626 24.3461Z" fill="white"/>
</g>
<defs>
<clipPath id="clip0_270_1726">
<rect width="42" height="42" fill="white"/>
</clipPath>
</defs>
</svg>
